<svg xmlns="http://www.w3.org/2000/svg" width="1200" height="620" viewBox="0 0 1200 620" fill="none">
  <defs>
    <style>
      text { font-family: Manrope, 'Segoe UI', sans-serif; }
      .label { fill: #193967; font-size: 18px; font-weight: 800; }
      .sub { fill: #5c6f84; font-size: 13px; font-weight: 600; }
      .group { fill: #fff; stroke: #d6e3ed; stroke-width: 2; }
      .group-strong { fill: #edf6fb; stroke: #0078c8; stroke-width: 2; }
      .group-accent { fill: #193967; stroke: #193967; stroke-width: 2; }
      .link { stroke: #85a5be; stroke-width: 2; }
      .link-accent { stroke: #42c5e8; stroke-width: 3; }
    </style>
    <marker id="arrow-accent" viewBox="0 0 10 10" refX="8" refY="5" markerWidth="7" markerHeight="7" orient="auto">
      <path d="M0 0 10 5 0 10Z" fill="#42c5e8"/>
    </marker>
  </defs>

  <rect x="20" y="20" width="1160" height="580" rx="20" fill="#f7fbfe"/>

  <rect x="416" y="48" width="368" height="76" rx="12" class="group-strong"/>
  <text x="600" y="81" text-anchor="middle" class="label">Eclipse S-CORE Members</text>
  <text x="600" y="104" text-anchor="middle" class="sub">Contribute, collaborate, and shape the project</text>

  <path d="M600 124v47M300 171h600M300 171v36M900 171v36" class="link"/>
  <path d="M600 124v47" class="link-accent"/>

  <rect x="150" y="207" width="300" height="86" rx="12" class="group"/>
  <circle cx="184" cy="250" r="16" fill="#dff4fa"/>
  <path d="M176 250h16m-8-8v16" stroke="#0078c8" stroke-width="2.5" stroke-linecap="round"/>
  <text x="214" y="245" class="label">Project Leads</text>
  <text x="214" y="268" class="sub">Project direction and coordination</text>

  <rect x="750" y="207" width="300" height="86" rx="12" class="group"/>
  <circle cx="784" cy="250" r="16" fill="#dff4fa"/>
  <path d="m776 250 6 6 11-13" stroke="#0078c8" stroke-width="2.5" stroke-linecap="round" stroke-linejoin="round"/>
  <text x="814" y="245" class="label">Technical Leads</text>
  <text x="814" y="268" class="sub">Technical alignment and planning</text>

  <path d="M300 293v53h300m300-53v53H600" class="link"/>
  <path d="M300 293v53m600-53v53" class="link-accent"/>
  <circle cx="600" cy="346" r="7" fill="#42c5e8"/>
  <path d="M600 353v44" class="link-accent" marker-end="url(#arrow-accent)"/>

  <rect x="80" y="414" width="1040" height="142" rx="16" class="group-accent"/>
  <text x="600" y="447" text-anchor="middle" fill="#aeefff" font-size="12" font-weight="800" letter-spacing="2">OPEN WORKING GROUPS</text>

  <g>
    <rect x="108" y="470" width="184" height="58" rx="9" fill="#fff" fill-opacity=".09" stroke="#fff" stroke-opacity=".22"/>
    <circle cx="130" cy="499" r="6" fill="#42c5e8"/>
    <text x="146" y="505" fill="#fff" font-size="14" font-weight="700">Architecture</text>

    <rect x="316" y="470" width="194" height="58" rx="9" fill="#fff" fill-opacity=".09" stroke="#fff" stroke-opacity=".22"/>
    <circle cx="338" cy="499" r="6" fill="#42c5e8"/>
    <text x="354" y="496" fill="#fff" font-size="13" font-weight="700">Development</text>
    <text x="354" y="513" fill="#fff" font-size="13" font-weight="700">process</text>

    <rect x="534" y="470" width="158" height="58" rx="9" fill="#fff" fill-opacity=".09" stroke="#fff" stroke-opacity=".22"/>
    <circle cx="556" cy="499" r="6" fill="#42c5e8"/>
    <text x="572" y="505" fill="#fff" font-size="14" font-weight="700">Infrastructure</text>

    <rect x="716" y="470" width="132" height="58" rx="9" fill="#fff" fill-opacity=".09" stroke="#fff" stroke-opacity=".22"/>
    <circle cx="738" cy="499" r="6" fill="#42c5e8"/>
    <text x="754" y="505" fill="#fff" font-size="14" font-weight="700">Testing</text>

    <rect x="872" y="470" width="220" height="58" rx="9" fill="#fff" fill-opacity=".09" stroke="#fff" stroke-opacity=".22"/>
    <circle cx="894" cy="499" r="6" fill="#42c5e8"/>
    <text x="910" y="496" fill="#fff" font-size="13" font-weight="700">Marketing &amp;</text>
    <text x="910" y="513" fill="#fff" font-size="13" font-weight="700">Communication</text>
  </g>
</svg>
